
<svg width="460" height="460" viewBox="0 0 360 360" xmlns="http://www.w3.org/2000/svg">
  <defs>
    <filter id="shadow" x="-20%" y="-20%" width="140%" height="140%">
      <feDropShadow dx="0" dy="6" stdDeviation="8" flood-opacity="0.25"/>
    </filter>
    <radialGradient id="orangeBelly" cx="50%" cy="40%" r="70%">
      <stop offset="0%" stop-color="#FFD199"/>
      <stop offset="55%" stop-color="#FFA042"/>
      <stop offset="100%" stop-color="#F26B00"/>
    </radialGradient>
  </defs>
  <g filter="url(#shadow)">
    <path d="M135 60 q-35 -55 -75 -35" stroke="#EA5B00" stroke-width="16" fill="none" stroke-linecap="round"/>
    <path d="M225 60 q35 -55 75 -35" stroke="#EA5B00" stroke-width="16" fill="none" stroke-linecap="round"/>
    <ellipse cx="180" cy="135" rx="125" ry="95" fill="#FF7F1F"/>
    <ellipse id="belly" cx="180" cy="245" rx="140" ry="100" fill="url(#orangeBelly)"/>
    <circle cx="140" cy="120" r="14" fill="white"/><circle cx="220" cy="120" r="14" fill="white"/>
    <circle cx="140" cy="120" r="7" fill="#1a1a1a"/><circle cx="220" cy="120" r="7" fill="#1a1a1a"/>
    <path d="M105 90 q30 -20 60 0" stroke="#C44E00" stroke-width="11" fill="none" stroke-linecap="round"/>
    <path d="M195 90 q30 -20 60 0" stroke="#C44E00" stroke-width="11" fill="none" stroke-linecap="round"/>
    <path d="M130 175 Q180 195 230 175" stroke="#222" stroke-width="11" fill="none" stroke-linecap="round"/>
    <ellipse cx="115" cy="315" rx="22" ry="12" fill="#EA5B00"/><ellipse cx="245" cy="315" rx="22" ry="12" fill="#EA5B00"/>
  </g>
</svg>
